<?xml version="1.0" standalone="no"?>
<!DOCTYPE svg PUBLIC "-//W3C//DTD SVG 20010904//EN"
 "http://www.w3.org/TR/2001/REC-SVG-20010904/DTD/svg10.dtd">
<svg version="1.0" xmlns="http://www.w3.org/2000/svg"
 width="225.000000pt" height="225.000000pt" viewBox="0 0 225.000000 225.000000"
 preserveAspectRatio="xMidYMid meet">
<metadata>
Created by potrace 1.14, written by Peter Selinger 2001-2017
</metadata>
<g transform="translate(0.000000,225.000000) scale(0.100000,-0.100000)"
fill="#000000" stroke="none">
<path d="M1000 2239 c-163 -16 -367 -92 -511 -190 -81 -55 -198 -166 -260
-248 -65 -86 -153 -264 -183 -373 -112 -393 2 -818 297 -1105 163 -160 322
-241 607 -314 55 -14 297 -10 385 5 458 82 838 470 905 926 14 98 9 361 -7
400 -6 14 -23 66 -38 115 -65 219 -210 427 -394 566 -128 96 -324 182 -476
208 -93 15 -232 20 -325 10z m67 -451 c23 -21 23 -22 23 -302 0 -273 0 -280
-22 -303 -21 -23 -22 -23 -302 -23 -273 0 -280 0 -303 22 -23 21 -23 22 -23
302 0 273 0 280 22 303 21 23 22 23 302 23 273 0 280 0 303 -22z m720 0 c23
-21 23 -22 23 -302 0 -273 0 -280 -22 -303 -21 -23 -22 -23 -304 -23 l-283 0
-20 26 c-20 26 -21 39 -21 302 0 269 1 276 22 299 21 23 22 23 302 23 273 0
280 0 303 -22z m-722 -723 l25 -24 0 -277 c0 -271 0 -278 -22 -301 -21 -23
-22 -23 -302 -23 -273 0 -280 0 -303 22 -23 21 -23 22 -23 302 0 273 0 280 22
303 21 23 22 23 300 23 l279 0 24 -25z m719 4 l26 -20 0 -282 c0 -274 0 -281
-22 -304 -21 -23 -22 -23 -302 -23 -273 0 -280 0 -303 22 -23 21 -23 22 -23
300 l0 279 25 24 24 25 274 0 c262 0 275 -1 301 -21z"/>
<path d="M742 1618 c-7 -7 -12 -31 -12 -55 l0 -43 -43 0 c-48 0 -67 -13 -67
-47 0 -27 27 -43 74 -43 36 0 36 0 36 -43 0 -24 5 -48 12 -55 32 -32 78 4 78
61 0 36 1 37 38 37 25 0 45 7 55 18 36 40 13 72 -50 72 -43 0 -43 0 -43 36 0
19 -5 44 -10 55 -12 21 -50 25 -68 7z"/>
<path d="M1336 1504 c-21 -20 -20 -37 2 -57 15 -14 41 -17 136 -17 127 0 156
8 156 43 0 42 -17 47 -151 47 -103 0 -131 -3 -143 -16z"/>
<path d="M662 878 c-19 -19 -14 -40 18 -73 l31 -32 -31 -33 c-32 -34 -38 -58
-18 -78 19 -19 45 -14 81 18 l34 29 28 -29 c32 -33 56 -38 79 -14 22 21 20 28
-15 69 l-31 35 31 35 c35 40 35 39 21 66 -15 27 -53 24 -90 -7 l-31 -27 -28
27 c-29 28 -60 33 -79 14z"/>
<path d="M1330 875 c-10 -12 -10 -21 -2 -40 11 -25 13 -25 146 -25 127 0 136
1 150 22 11 15 12 26 5 40 -9 16 -24 18 -148 18 -112 0 -141 -3 -151 -15z"/>
<path d="M1378 733 c-48 -5 -65 -25 -50 -58 11 -25 13 -25 145 -25 90 0 137 4
145 12 18 18 14 56 -7 68 -19 9 -153 11 -233 3z"/>
</g>
</svg>
